<svg width="17" height="18" viewBox="0 0 17 18" fill="none" xmlns="http://www.w3.org/2000/svg">
<path d="M16.5 9.00095C16.5018 4.30416 12.8259 0.5 8.28885 0.5C4.70106 0.5 1.65125 2.87973 0.531214 6.19389C0.422882 6.64021 0.729516 6.57184 0.938834 6.57184L2.36183 6.57184C2.06989 3.99458 3.71873 3.89012 3.99415 3.71729C4.57069 3.36784 4.71758 2.54167 4.993 2.78857C5.28494 3.37543 4.91955 3.97369 3.92988 4.66691C3.21196 5.16831 3.33314 6.14641 3.45249 6.64211C3.88398 6.75036 4.26957 6.98207 4.56886 7.30114C5.03156 4.63082 6.60695 3.51788 8.4798 3.51788C9.38868 3.51788 10.2241 3.82745 10.898 4.4352C12.0088 4.04776 12.9599 4.47129 13.1013 4.52827C13.1968 5.63172 12.3375 6.77885 12.2696 6.86812C12.433 7.49486 12.5193 8.21087 12.5193 9.01235C12.5193 9.81762 12.4293 10.5355 12.2641 11.168C12.422 11.3826 13.1601 12.4462 13.0701 13.4717C12.9287 13.5268 11.9997 13.9408 10.9035 13.5762C10.2278 14.1915 9.38501 14.5049 8.47429 14.5049C6.59777 14.5049 5.02054 13.3844 4.56518 10.7065C4.34711 10.9358 4.08703 11.118 3.80015 11.2422C3.51326 11.3664 3.20532 11.4303 2.89431 11.4301L0.828667 11.4301C0.663416 11.4453 0.5 11.4301 0.5 11.7149C1.59617 15.0785 4.66801 17.5 8.28701 17.5C12.8259 17.5 16.5 13.6939 16.5 9.00095Z" fill="black"/>
</svg>
