<svg width="14" height="14" viewBox="0 0 14 14" fill="none" xmlns="http://www.w3.org/2000/svg">
<path d="M13.25 12.2455L13.25 1.75487C13.25 1.20018 12.8 0.750183 12.2453 0.750183L1.75469 0.750183C1.2 0.750183 0.75 1.20018 0.75 1.75487L0.749999 12.2455C0.749999 12.8002 1.2 13.2502 1.75469 13.2502L12.2453 13.2502C12.8 13.2502 13.25 12.8002 13.25 12.2455ZM1.75 12.2455C1.75156 5.24862 1.75313 1.75018 1.75469 1.75018C8.75156 1.75175 12.25 1.75331 12.25 1.75487C12.2484 8.75175 12.2469 12.2502 12.2453 12.2502C5.24844 12.2486 1.75 12.2471 1.75 12.2455ZM8.56406 2.60331L8.56406 4.458L2.59844 4.45799L2.59844 2.60331L8.56406 2.60331ZM9.37969 3.53143C9.37969 4.12362 9.86094 4.60643 10.4547 4.60643C10.5959 4.60643 10.7356 4.57863 10.8661 4.5246C10.9965 4.47058 11.115 4.3914 11.2148 4.29157C11.3147 4.19175 11.3938 4.07324 11.4479 3.94282C11.5019 3.81239 11.5297 3.6726 11.5297 3.53143C11.5297 3.39026 11.5019 3.25047 11.4479 3.12005C11.3938 2.98962 11.3147 2.87112 11.2148 2.77129C11.115 2.67147 10.9965 2.59229 10.8661 2.53826C10.7356 2.48424 10.5959 2.45643 10.4547 2.45643C9.86094 2.45487 9.37969 2.93612 9.37969 3.53143ZM5.55 7.47362C6.32812 7.47362 7.08125 7.62206 7.08125 8.58612C7.08125 9.53612 6.19219 9.55018 5.5 9.55018L2.59844 9.55018L2.59844 11.4033L5.87031 11.4033C7.47656 11.4033 8.7125 11.0564 8.7125 9.17987C8.7125 8.27831 8.21719 7.67362 7.74844 7.42518L7.74844 7.40018L8.56406 7.40018L8.56406 5.6205L2.59844 5.6205L2.59844 7.47362L5.55 7.47362Z" fill="black"/>
</svg>
