<svg width="11" height="15" viewBox="0 0 11 15" fill="none" xmlns="http://www.w3.org/2000/svg">
<path d="M10.2939 14.4057C10.3037 14.4054 10.3136 14.4049 10.3234 14.4042C10.3313 14.4036 10.3392 14.4028 10.3471 14.4018C10.3734 14.3986 10.3994 14.3933 10.4248 14.3861C10.4496 14.3792 10.4739 14.3705 10.4974 14.36C10.5055 14.3564 10.5134 14.3526 10.5213 14.3485C10.5605 14.3288 10.5971 14.3041 10.63 14.2751C10.6333 14.2722 10.6369 14.2697 10.6402 14.2667C10.643 14.2641 10.6454 14.2614 10.6481 14.2587C10.6548 14.2523 10.6613 14.2457 10.6677 14.2389C10.6736 14.2327 10.6793 14.2263 10.6849 14.2198C10.6903 14.2134 10.6956 14.2069 10.7007 14.2003C10.7064 14.1931 10.7118 14.1858 10.7171 14.1783C10.7217 14.1718 10.7258 14.1651 10.7301 14.1584C10.7351 14.1505 10.7401 14.1426 10.7446 14.1345C10.7486 14.1274 10.7521 14.1201 10.7558 14.1128C10.7598 14.1048 10.7638 14.097 10.7673 14.0889C10.7709 14.0809 10.774 14.0726 10.7772 14.0643C10.7801 14.0567 10.783 14.0491 10.7856 14.0413C10.7884 14.0324 10.791 14.0234 10.7934 14.0144C10.7954 14.0068 10.7976 13.9992 10.7993 13.9916C10.8012 13.9825 10.8029 13.9734 10.8044 13.9642C10.8058 13.9562 10.8071 13.948 10.8082 13.9399C10.8092 13.9311 10.81 13.9224 10.8106 13.9136C10.8112 13.9047 10.8117 13.8957 10.8119 13.8868C10.812 13.8828 10.8125 13.879 10.8125 13.8751L10.8125 1.125C10.8125 1.12135 10.812 1.11783 10.812 1.11424C10.8118 1.10455 10.8112 1.09498 10.8105 1.08536C10.8099 1.07719 10.8092 1.06904 10.8083 1.06092C10.8071 1.05212 10.8058 1.04335 10.8043 1.03462C10.8029 1.02606 10.8012 1.01754 10.7994 1.00905C10.7976 1.00082 10.7954 0.992719 10.7931 0.984484C10.7908 0.976051 10.7885 0.967551 10.7858 0.95925C10.7831 0.950949 10.78 0.942914 10.7768 0.934812C10.7738 0.926977 10.7709 0.919141 10.7675 0.91157C10.7638 0.90307 10.7596 0.894836 10.7555 0.886535C10.752 0.879563 10.7486 0.87259 10.7447 0.865816C10.7401 0.857449 10.7349 0.849348 10.7298 0.841246C10.7257 0.834738 10.7217 0.82823 10.7172 0.821988C10.7119 0.814376 10.7063 0.806913 10.7005 0.799609C10.6955 0.79304 10.6903 0.786597 10.685 0.780285C10.6793 0.773745 10.6735 0.767345 10.6675 0.761094C10.6612 0.75432 10.6548 0.747812 10.6481 0.741371C10.6454 0.738715 10.643 0.735926 10.6402 0.733402C10.6369 0.730348 10.6334 0.727824 10.63 0.724902C10.6166 0.71324 10.6026 0.702226 10.5882 0.691898C10.5809 0.686748 10.5736 0.681788 10.5661 0.677023C10.537 0.658381 10.5062 0.64274 10.474 0.63034C10.4497 0.62068 10.4246 0.612975 10.3991 0.607297C10.3819 0.603458 10.3646 0.600444 10.3471 0.598266C10.3392 0.597292 10.3313 0.596495 10.3234 0.595875C10.3135 0.595122 10.3037 0.594635 10.2939 0.594414C10.2897 0.594281 10.2855 0.59375 10.2812 0.59375L1.25 0.59375C0.968305 0.594066 0.698237 0.706109 0.499049 0.905298C0.29986 1.10449 0.187817 1.37455 0.1875 1.65625L0.187499 13.3437C0.187816 13.6254 0.299859 13.8955 0.499049 14.0947C0.698237 14.2939 0.968304 14.4059 1.25 14.4062L10.2812 14.4062C10.2855 14.4062 10.2897 14.4057 10.2939 14.4056L10.2939 14.4057ZM1.25 13.3438L1.25 1.65632L9.07352 1.65632L4.0459 7.14107C3.95611 7.23907 3.9063 7.36715 3.9063 7.50007C3.9063 7.63298 3.95611 7.76106 4.0459 7.85906L9.07365 13.3439L1.25 13.3445L1.25 13.3438Z" fill="black"/>
</svg>
