<svg width="11" height="11" viewBox="0 0 11 11" fill="none" xmlns="http://www.w3.org/2000/svg">
<path d="M1.853 10.8472L0.314555 9.29627C0.0797783 9.06735 0.000238989 8.7639 -0.000118626 8.46838C0.0390326 7.16148 0.681001 5.92616 1.34018 4.91189C2.55138 3.24702 4.0532 1.71943 5.86809 0.760688C6.62913 0.392977 7.60017 -0.0384802 8.44963 0.00274237C8.76918 0.00641822 9.0828 0.0925299 9.28877 0.317581L10.8389 1.86845C11.1128 2.1905 11.0181 2.50193 10.699 2.70802L8.33308 3.9557C8.05279 4.08702 7.75247 4.01169 7.55219 3.81576L6.9811 3.24439C6.93279 3.20911 6.87779 3.18666 6.81793 3.18609C5.96981 3.40519 5.1881 4.06896 4.65014 4.65533C4.11217 5.24169 3.38332 5.87198 3.21078 6.69012C3.18257 6.79125 3.17267 6.91511 3.23992 6.98747L3.9159 7.65214C4.08956 7.88127 4.17444 8.2121 4.03244 8.45671L4.03244 8.46837L2.7038 10.7189C2.49671 11.0493 2.09649 11.0837 1.853 10.8472Z" fill="black"/>
</svg>
