<svg width="12" height="12" viewBox="0 0 12 12" fill="none" xmlns="http://www.w3.org/2000/svg">
<path d="M7.50854 5.33813e-06C7.40719 -0.00164838 7.30772 0.0275435 7.22334 0.0837105C7.13896 0.139877 7.07364 0.220366 7.03604 0.314505L5.11554 5.11501L0.314542 7.0355C0.221681 7.0726 0.142078 7.13669 0.0860154 7.2195C0.0299527 7.3023 5.39858e-06 7.40001 4.16338e-05 7.50001L4.16335e-05 7.50801C0.00163617 7.60927 0.0339476 7.70767 0.0926968 7.79017C0.151446 7.87267 0.233864 7.93538 0.329042 7.97001L11.329 11.97C11.4185 12.0028 11.5155 12.0092 11.6086 11.9887C11.7016 11.9682 11.7869 11.9215 11.8543 11.8541C11.9217 11.7868 11.9684 11.7016 11.989 11.6085C12.0096 11.5155 12.0032 11.4185 11.9705 11.329L7.97054 0.329005C7.93583 0.233788 7.87302 0.151354 7.79044 0.0926069C7.70785 0.03386 7.60938 0.00156894 7.50804 5.33811e-06L7.50854 5.33813e-06Z" fill="black"/>
</svg>
