<?xml version="1.0" encoding="utf-8"?><svg viewBox="0 0 17 18" xmlns="http://www.w3.org/2000/svg" xmlns:xlink="http://www.w3.org/1999/xlink"><style>:root>svg{display:none}:root>svg:target{display:block}</style><svg viewBox="0 0 17 18" id="github" xmlns="http://www.w3.org/2000/svg"><path d="M16.5 9C16.502 4.305 12.826.5 8.289.5 4.7.5 1.65 2.88.53 6.194c-.108.446.199.378.408.378h1.423C2.07 3.995 3.719 3.89 3.994 3.717c.577-.35.724-1.175.999-.928.292.586-.073 1.185-1.063 1.878-.718.501-.597 1.48-.478 1.975.432.108.818.34 1.117.66.463-2.671 2.038-3.784 3.91-3.784.91 0 1.745.31 2.419.917 1.11-.387 2.062.036 2.203.093.096 1.104-.764 2.25-.831 2.34a8.52 8.52 0 01.25 2.144 8.53 8.53 0 01-.256 2.156c.158.215.896 1.278.806 2.304-.141.055-1.07.469-2.167.104a3.546 3.546 0 01-2.429.929c-1.876 0-3.453-1.12-3.909-3.799a2.34 2.34 0 01-.765.536 2.275 2.275 0 01-.906.188H.83c-.166.015-.329 0-.329.285C1.596 15.079 4.668 17.5 8.287 17.5c4.539 0 8.213-3.806 8.213-8.5z"/></svg><svg viewBox="0 0 14 14" id="linkedin" xmlns="http://www.w3.org/2000/svg"><path d="M13.25 12.245V1.755C13.25 1.2 12.8.75 12.245.75H1.755C1.2.75.75 1.2.75 1.755v10.49c0 .555.45 1.005 1.005 1.005h10.49c.555 0 1.005-.45 1.005-1.005zm-11.5 0c.002-6.996.003-10.495.005-10.495 6.997.002 10.495.003 10.495.005-.002 6.997-.003 10.495-.005 10.495-6.997-.001-10.495-.003-10.495-.005zm6.814-9.642v1.855H2.598V2.603h5.966zm.816.928a1.076 1.076 0 102.152-.001 1.076 1.076 0 00-2.152.001zM5.55 7.474c.778 0 1.531.148 1.531 1.112 0 .95-.889.964-1.581.964H2.598v1.853H5.87c1.607 0 2.843-.347 2.843-2.223 0-.902-.496-1.506-.965-1.755V7.4h.816V5.62H2.598v1.854H5.55z"/></svg><svg viewBox="0 0 11 15" id="mail" xmlns="http://www.w3.org/2000/svg"><path d="M10.294 14.406a.728.728 0 00.053-.004.512.512 0 00.283-.127l.01-.008.008-.008a.523.523 0 00.07-.08l.012-.02.015-.025.01-.021.012-.024.01-.025.009-.023a.635.635 0 00.007-.027l.006-.022a.63.63 0 00.013-.105V1.125v-.01a.554.554 0 00-.019-.13l-.007-.026a.42.42 0 00-.01-.024l-.008-.023-.013-.025-.01-.021L10.73.84l-.013-.019a.444.444 0 00-.069-.08L10.64.732l-.01-.008a.568.568 0 00-.156-.095.493.493 0 00-.18-.036H1.25A1.064 1.064 0 00.187 1.656v11.688a1.064 1.064 0 001.063 1.062h9.044zM1.25 13.344V1.656h7.824L4.046 7.141a.531.531 0 000 .718l5.028 5.485H1.25z"/></svg><svg viewBox="0 0 11 11" id="phone" xmlns="http://www.w3.org/2000/svg"><path d="M1.853 10.847L.315 9.297C.08 9.066 0 8.763 0 8.467.039 7.161.68 5.926 1.34 4.912 2.551 3.247 4.053 1.719 5.868.76 6.63.393 7.6-.04 8.45.003c.32.003.633.09.839.315l1.55 1.55c.274.323.18.634-.14.84L8.333 3.956a.687.687 0 01-.78-.14l-.572-.572a.28.28 0 00-.163-.058c-.848.22-1.63.883-2.168 1.47-.538.586-1.267 1.216-1.44 2.034-.027.101-.037.225.03.297l.676.665c.174.23.258.56.116.805v.011l-1.328 2.25c-.207.331-.608.366-.851.13z"/></svg><svg viewBox="0 0 12 12" id="remotely" xmlns="http://www.w3.org/2000/svg"><path d="M7.509 0a.5.5 0 00-.473.315l-1.92 4.8-4.801 1.92A.5.5 0 000 7.5v.008a.5.5 0 00.329.462l11 4a.5.5 0 00.641-.641l-4-11A.5.5 0 007.509 0z"/></svg></svg>